<svg aria-hidden="true" style="position: absolute; width: 0; height: 0; overflow: hidden;" version="1.1" xmlns="http://www.w3.org/2000/svg" xmlns:xlink="http://www.w3.org/1999/xlink">
<defs>

<symbol id="icon-trash" viewBox="0 0 29 32">
<path stroke-linejoin="round" stroke-linecap="round" stroke-miterlimit="4" stroke-width="2.5263" d="M19.509 6.877v-1.123c0-1.572 0-2.358-0.306-2.959-0.269-0.528-0.699-0.958-1.227-1.227-0.6-0.306-1.386-0.306-2.959-0.306h-2.246c-1.572 0-2.358 0-2.959 0.306-0.528 0.269-0.958 0.699-1.227 1.227-0.306 0.6-0.306 1.386-0.306 2.959v1.123M11.088 14.597v7.017M16.702 14.597v7.017M1.263 6.877h25.263M23.719 6.877v15.719c0 2.358 0 3.537-0.459 4.438-0.404 0.792-1.048 1.436-1.84 1.84-0.901 0.459-2.080 0.459-4.438 0.459h-6.175c-2.358 0-3.537 0-4.438-0.459-0.792-0.404-1.436-1.048-1.84-1.84-0.459-0.901-0.459-2.080-0.459-4.438v-15.719"></path>
</symbol>

<symbol id="icon-search" viewBox="0 0 32 32">
<path stroke-linejoin="round" stroke-linecap="round" stroke-miterlimit="4" stroke-width="2.6667" d="M14.667 25.333c5.891 0 10.667-4.776 10.667-10.667s-4.776-10.667-10.667-10.667c-5.891 0-10.667 4.776-10.667 10.667s4.776 10.667 10.667 10.667z"></path>
<path stroke-linejoin="round" stroke-linecap="round" stroke-miterlimit="4" stroke-width="2.6667" d="M28 28l-5.8-5.8"></path>
</symbol>

<symbol id="icon-heart" viewBox="0 0 36 32">
<path stroke-linejoin="round" stroke-linecap="round" stroke-miterlimit="4" stroke-width="2.8235" d="M31.673 3.94c-0.801-0.802-1.752-1.437-2.799-1.871s-2.169-0.657-3.303-0.657c-1.133 0-2.255 0.223-3.303 0.657s-1.998 1.070-2.799 1.871l-1.663 1.663-1.663-1.663c-1.618-1.618-3.813-2.528-6.102-2.528s-4.484 0.909-6.102 2.528c-1.618 1.618-2.527 3.813-2.527 6.102s0.909 4.484 2.527 6.102l13.867 13.867 13.867-13.867c0.802-0.801 1.437-1.752 1.871-2.799s0.657-2.169 0.657-3.303-0.223-2.255-0.657-3.303c-0.434-1.047-1.070-1.998-1.871-2.799z"></path>
</symbol>

<symbol id="icon-cross" viewBox="0 0 32 32">
<path stroke-linejoin="round" stroke-linecap="round" stroke-miterlimit="4" stroke-width="5.3333" d="M29.333 2.667l-26.667 26.667M2.667 2.667l26.667 26.667"></path>
</symbol>

<symbol id="icon-facebook" viewBox="0 0 32 32">
<path d="M19.52 4.64c0.24 0 0.48 0 0.96 0v3.6c-0.24 0-0.72 0-1.2 0s-0.96 0-1.2 0.24c-0.24 0.24-0.24 0.48-0.24 1.040 0 0.48 0 0.8 0 1.28h2.64v3.040h-2.64v13.2h-4.080v-13.28h-2.16v-3.040h2.16v-1.040c0-1.76 0.24-3.040 0.72-3.6 0.72-1.040 2.16-1.52 4.32-1.52 0.24 0.080 0.48 0.080 0.72 0.080z"></path>
</symbol>

<symbol id="icon-youtube" viewBox="0 0 32 32">
<path d="M24.24 6c-1.36-0.080-4.16-0.16-8.4-0.16h-0.56c-4.080 0-6.8 0.080-8.16 0.24-1.84 0.16-3.12 0.64-3.84 1.28-0.64 0.56-1.12 1.6-1.28 2.96-0.080 0.88-0.16 2.72-0.16 5.52v0.4c0 2.64 0.080 4.48 0.24 5.36 0.24 1.28 0.64 2.24 1.44 2.8 0.8 0.64 2.16 1.040 4.080 1.2 1.36 0.080 4.16 0.16 8.4 0.16h0.56c4.080 0 6.8-0.080 8.16-0.24 1.84-0.16 3.12-0.64 3.84-1.28 0.64-0.56 1.12-1.6 1.28-2.96 0.080-0.88 0.16-2.72 0.16-5.52v-0.4c0-2.64-0.080-4.48-0.24-5.36-0.24-1.28-0.64-2.24-1.44-2.8-0.8-0.64-2.16-1.040-4.080-1.2zM21.12 15.84l-8.8 5.28v-10.56l8.8 5.28z"></path>
</symbol>

<symbol id="icon-instagram" viewBox="0 0 32 32">
<path d="M28.717 10.756c-0.016-1.074-0.215-2.14-0.596-3.145-0.667-1.716-2.024-3.073-3.743-3.737-0.994-0.373-2.044-0.573-3.108-0.596-1.368-0.061-1.801-0.078-5.273-0.078s-3.917 0-5.274 0.078c-1.062 0.023-2.112 0.223-3.106 0.596-1.719 0.664-3.078 2.021-3.743 3.737-0.374 0.992-0.576 2.041-0.596 3.101-0.061 1.367-0.080 1.8-0.080 5.265s0 3.909 0.080 5.265c0.021 1.062 0.222 2.109 0.596 3.104 0.667 1.714 2.024 3.071 3.744 3.735 0.989 0.386 2.040 0.605 3.106 0.639 1.369 0.061 1.803 0.079 5.274 0.079s3.916 0 5.274-0.079c1.062-0.021 2.113-0.221 3.108-0.595 1.719-0.666 3.076-2.022 3.743-3.737 0.374-0.994 0.574-2.041 0.596-3.104 0.061-1.365 0.080-1.798 0.080-5.265-0.003-3.466-0.003-3.906-0.082-5.264zM15.99 22.531c-3.631 0-6.572-2.936-6.572-6.561s2.941-6.561 6.572-6.561c3.628 0 6.572 2.936 6.572 6.561s-2.944 6.561-6.572 6.561zM22.823 10.696c-0.849 0-1.532-0.684-1.532-1.53s0.684-1.53 1.532-1.53c0.846 0 1.531 0.684 1.531 1.53s-0.685 1.53-1.531 1.53z"></path>
<path d="M15.992 19.976c2.211 0 4.004-1.793 4.004-4.004s-1.793-4.004-4.004-4.004c-2.211 0-4.004 1.793-4.004 4.004s1.793 4.004 4.004 4.004z"></path>
</symbol>

<symbol id="icon-arrow-one-left" viewBox="0 0 32 32">
<path d="M14.133 16.947c-0.125-0.124-0.224-0.271-0.292-0.434s-0.103-0.337-0.103-0.513 0.035-0.35 0.103-0.513c0.068-0.162 0.167-0.31 0.292-0.434l6.12-6.107c0.125-0.124 0.224-0.271 0.292-0.434s0.103-0.337 0.103-0.513c0-0.176-0.035-0.35-0.103-0.513s-0.167-0.31-0.292-0.434c-0.25-0.248-0.588-0.388-0.94-0.388s-0.69 0.139-0.94 0.388l-6.12 6.12c-0.749 0.75-1.17 1.767-1.17 2.827s0.421 2.077 1.17 2.827l6.12 6.12c0.248 0.246 0.584 0.385 0.933 0.387 0.176 0.001 0.349-0.033 0.512-0.099s0.31-0.164 0.435-0.288c0.125-0.124 0.224-0.271 0.292-0.434s0.103-0.337 0.103-0.513-0.035-0.35-0.103-0.513c-0.068-0.162-0.167-0.31-0.292-0.434l-6.12-6.107z"></path>
</symbol>

<symbol id="icon-sun" viewBox="0 0 32 32">
<path d="M14.316 13.621l0.365 0.376-4.485-12.907 5.344 12.573 0.018-0.524 0.443-13.138 0.461 13.663 5.344-12.573-4.485 12.907 9.506-9.785-8.825 10.409 12.384-5.676-11.973 6.504 13.589-0.8-13.504 1.721 12.959 4.184-13.211-3.294 10.579 8.603-11.134-7.864 6.77 11.86-7.554-11.373 2.047 13.515-2.953-13.345-2.953 13.345 2.047-13.515-7.553 11.373 6.77-11.86-11.134 7.864 10.579-8.603-13.211 3.294 12.959-4.184-13.504-1.721 13.589 0.8-11.973-6.504 12.384 5.676-8.825-10.409 9.141 9.41zM15.25 14.192l-0.649 0.404-0.46 0.612-0.209 0.737 0.070 0.763 0.34 0.686 0.564 0.517 0.712 0.277h0.763l0.712-0.277 0.564-0.517 0.34-0.686 0.070-0.763-0.209-0.737-0.46-0.612-0.649-0.404-0.75-0.141-0.75 0.141z"></path>
</symbol>

<symbol id="icon-arrow-one-right" viewBox="0 0 32 32">
<path d="M17.867 16.947c0.125-0.124 0.224-0.271 0.292-0.434s0.103-0.337 0.103-0.513-0.035-0.35-0.103-0.513c-0.068-0.162-0.167-0.31-0.292-0.434l-6.12-6.107c-0.125-0.124-0.224-0.271-0.292-0.434s-0.103-0.337-0.103-0.513c0-0.176 0.035-0.35 0.103-0.513s0.167-0.31 0.292-0.434c0.25-0.248 0.588-0.388 0.94-0.388s0.69 0.139 0.94 0.388l6.12 6.12c0.749 0.75 1.17 1.767 1.17 2.827s-0.421 2.077-1.17 2.827l-6.12 6.12c-0.248 0.246-0.584 0.385-0.933 0.387-0.175 0.001-0.349-0.033-0.512-0.099s-0.31-0.164-0.435-0.288c-0.125-0.124-0.224-0.271-0.292-0.434s-0.103-0.337-0.103-0.513 0.035-0.35 0.103-0.513c0.068-0.162 0.167-0.31 0.292-0.434l6.12-6.107z"></path>
</symbol>

<symbol id="icon-weights" viewBox="0 0 32 32">
<path d="M7.36 9.143h-1.92c-0.532 0-0.96 0.459-0.96 1.029v4.457h-0.96c-0.176 0-0.32 0.154-0.32 0.343v2.057c0 0.188 0.144 0.343 0.32 0.343h0.96v4.457c0 0.57 0.428 1.028 0.96 1.028h1.92c0.532 0 0.96-0.459 0.96-1.028v-11.657c0-0.57-0.428-1.029-0.96-1.029zM28.48 14.629h-0.96v-4.457c0-0.57-0.428-1.029-0.96-1.029h-1.92c-0.532 0-0.96 0.459-0.96 1.029v11.657c0 0.57 0.428 1.028 0.96 1.028h1.92c0.532 0 0.96-0.459 0.96-1.028v-4.457h0.96c0.176 0 0.32-0.154 0.32-0.343v-2.057c0-0.189-0.144-0.343-0.32-0.343zM21.44 6.4h-1.92c-0.532 0-0.96 0.459-0.96 1.029v7.2h-5.12v-7.2c0-0.57-0.428-1.029-0.96-1.029h-1.92c-0.532 0-0.96 0.459-0.96 1.029v17.143c0 0.57 0.428 1.029 0.96 1.029h1.92c0.532 0 0.96-0.459 0.96-1.029v-7.2h5.12v7.2c0 0.57 0.428 1.029 0.96 1.029h1.92c0.532 0 0.96-0.459 0.96-1.029v-17.143c0-0.57-0.428-1.029-0.96-1.029z"></path>
</symbol>

<symbol id="icon-arrow-two-left" viewBox="0 0 41 32">
<path d="M13.111 16.789c-0.104-0.103-0.187-0.226-0.243-0.362s-0.085-0.281-0.085-0.427 0.029-0.292 0.085-0.427c0.056-0.135 0.139-0.258 0.243-0.361l5.1-5.089c0.104-0.103 0.187-0.226 0.243-0.362s0.085-0.281 0.085-0.427c0-0.147-0.029-0.292-0.085-0.427s-0.139-0.258-0.243-0.362c-0.208-0.207-0.49-0.323-0.783-0.323s-0.575 0.116-0.783 0.323l-5.1 5.1c-0.624 0.625-0.975 1.472-0.975 2.355s0.351 1.731 0.975 2.356l5.1 5.1c0.207 0.205 0.486 0.321 0.778 0.322 0.146 0.001 0.291-0.027 0.427-0.083s0.259-0.137 0.362-0.24c0.104-0.103 0.187-0.226 0.243-0.362s0.085-0.281 0.085-0.427-0.029-0.292-0.085-0.427c-0.056-0.135-0.139-0.258-0.243-0.361l-5.1-5.089z"></path>
<path d="M22.444 16.789c-0.104-0.103-0.187-0.226-0.243-0.362s-0.085-0.281-0.085-0.427 0.029-0.292 0.085-0.427c0.056-0.135 0.139-0.258 0.243-0.361l5.1-5.089c0.104-0.103 0.187-0.226 0.243-0.362s0.085-0.281 0.085-0.427c0-0.147-0.029-0.292-0.085-0.427s-0.139-0.258-0.243-0.362c-0.208-0.207-0.49-0.323-0.783-0.323s-0.575 0.116-0.783 0.323l-5.1 5.1c-0.624 0.625-0.975 1.472-0.975 2.355s0.351 1.731 0.975 2.356l5.1 5.1c0.207 0.205 0.486 0.321 0.778 0.322 0.146 0.001 0.291-0.027 0.427-0.083s0.259-0.137 0.362-0.24c0.104-0.103 0.187-0.226 0.243-0.362s0.085-0.281 0.085-0.427-0.029-0.292-0.085-0.427c-0.056-0.135-0.139-0.258-0.243-0.361l-5.1-5.089z"></path>
</symbol>

<symbol id="icon-arrow-two-right" viewBox="0 0 41 32">
<path d="M28.222 16.789c0.104-0.103 0.187-0.226 0.243-0.362s0.085-0.281 0.085-0.427-0.029-0.292-0.085-0.427c-0.056-0.135-0.139-0.258-0.243-0.361l-5.1-5.089c-0.104-0.103-0.187-0.226-0.243-0.362s-0.085-0.281-0.085-0.427c0-0.147 0.029-0.292 0.085-0.427s0.139-0.258 0.243-0.362c0.208-0.207 0.49-0.323 0.783-0.323s0.575 0.116 0.783 0.323l5.1 5.1c0.624 0.625 0.975 1.472 0.975 2.355s-0.351 1.731-0.975 2.356l-5.1 5.1c-0.207 0.205-0.486 0.321-0.778 0.322-0.146 0.001-0.291-0.027-0.427-0.083s-0.259-0.137-0.362-0.24c-0.104-0.103-0.187-0.226-0.243-0.362s-0.085-0.281-0.085-0.427 0.029-0.292 0.085-0.427c0.056-0.135 0.139-0.258 0.243-0.361l5.1-5.089z"></path>
<path d="M18.889 16.789c0.104-0.103 0.187-0.226 0.243-0.362s0.085-0.281 0.085-0.427-0.029-0.292-0.085-0.427c-0.056-0.135-0.139-0.258-0.243-0.361l-5.1-5.089c-0.104-0.103-0.187-0.226-0.243-0.362s-0.085-0.281-0.085-0.427c0-0.147 0.029-0.292 0.085-0.427s0.139-0.258 0.243-0.362c0.208-0.207 0.49-0.323 0.783-0.323s0.575 0.116 0.783 0.323l5.1 5.1c0.624 0.625 0.975 1.472 0.975 2.355s-0.351 1.731-0.975 2.356l-5.1 5.1c-0.207 0.205-0.486 0.321-0.778 0.322-0.146 0.001-0.291-0.027-0.427-0.083s-0.259-0.137-0.362-0.24c-0.104-0.103-0.187-0.226-0.243-0.362s-0.085-0.281-0.085-0.427 0.029-0.292 0.085-0.427c0.056-0.135 0.139-0.258 0.243-0.361l5.1-5.089z"></path>
</symbol>

<symbol id="icon-runner" viewBox="0 0 32 32">
<path d="M29.647 9.451c-0.419-0.501-1.166-0.567-1.667-0.149l-3.282 2.757-1.509-3.739c-0.054-0.14-0.135-0.258-0.229-0.362-0.308-0.686-0.844-1.275-1.582-1.617-0.32-0.146-0.652-0.224-0.982-0.262-0.073-0.038-0.139-0.088-0.222-0.114l-5.775-1.61c-0.324-0.088-0.65-0.031-0.917 0.125-0.317 0.107-0.589 0.338-0.719 0.672l-2.175 5.592c-0.236 0.608 0.066 1.294 0.676 1.534 0.607 0.236 1.294-0.068 1.532-0.678l1.837-4.722 2.63 0.731c-0.064 0.104-0.133 0.201-0.185 0.312l-3.372 7.309c-0.049 0.107-0.075 0.217-0.109 0.328l-4.098 6.871-6.859 2.294c-0.776 0.58-0.941 1.674-0.367 2.45 0.577 0.778 1.674 0.943 2.448 0.369l7.018-2.417c0.215-0.156 0.371-0.36 0.489-0.58 0.088-0.094 0.189-0.168 0.256-0.284l2.443-4.096 4.337 3.696-4.641 5.23c-0.639 0.721-0.575 1.832 0.149 2.469 0.723 0.643 1.83 0.575 2.473-0.149l5.791-6.524c0.18-0.201 0.288-0.433 0.36-0.676 0.043-0.132 0.043-0.269 0.054-0.406 0-0.069 0.026-0.132 0.021-0.196-0.016-0.478-0.21-0.943-0.601-1.274l-3.991-3.403c0.288-0.274 0.532-0.6 0.709-0.983l2.585-5.599 0.828 2.206c0.035 0.196 0.1 0.388 0.239 0.549 0.125 0.149 0.284 0.248 0.454 0.317 0.017 0.009 0.038 0.010 0.059 0.016 0.107 0.038 0.216 0.075 0.329 0.080 0.133 0.012 0.269-0.005 0.405-0.043 0.004-0.002 0.005-0.002 0.005-0.002 0.036-0.009 0.073-0.002 0.109-0.017 0.192-0.073 0.34-0.196 0.466-0.34l4.71-3.998c0.501-0.421 0.289-1.166-0.132-1.667z"></path>
<path d="M23.69 6.602c1.823 0 3.301-1.478 3.301-3.301s-1.478-3.301-3.301-3.301c-1.823 0-3.301 1.478-3.301 3.301s1.478 3.301 3.301 3.301z"></path>
</symbol>

<symbol id="icon-star" viewBox="0 0 32 32">
<path d="M13.618 1.701c0.737-2.268 3.945-2.268 4.682 0l2.080 6.402c0.33 1.014 1.275 1.701 2.341 1.701h6.731c2.384 0 3.376 3.051 1.447 4.453l-5.446 3.957c-0.863 0.627-1.224 1.738-0.894 2.752l2.080 6.402c0.737 2.268-1.859 4.154-3.788 2.752l-5.446-3.957c-0.863-0.627-2.031-0.627-2.894 0l-5.446 3.957c-1.929 1.402-4.525-0.484-3.788-2.752l2.080-6.402c0.33-1.014-0.031-2.125-0.894-2.752l-5.446-3.957c-1.929-1.402-0.938-4.453 1.447-4.453h6.731c1.066 0 2.012-0.687 2.341-1.701l2.080-6.402z"></path>
</symbol>

<symbol id="icon-quote" viewBox="0 0 38 32">
<path d="M7.501 16.603c2.319-0.919 4.178-0.678 5.578 0.722s1.816 3.631 1.247 6.694c-0.437 2.275-1.4 4.025-2.887 5.25-1.444 1.181-3.128 1.772-5.053 1.772-2.625 0-4.441-1.006-5.447-3.019-1.006-2.056-1.203-4.812-0.591-8.269 0.35-1.881 0.919-3.784 1.706-5.709s1.838-3.894 3.15-5.906c1.313-2.013 3.019-3.763 5.119-5.25s4.419-2.45 6.956-2.888l-0.656 6.956c-2.144 0.438-4.047 1.553-5.709 3.347-1.663 1.75-2.8 3.85-3.413 6.3zM27.254 16.603c2.319-0.919 4.178-0.678 5.578 0.722s1.816 3.631 1.247 6.694c-0.437 2.275-1.4 4.025-2.887 5.25-1.444 1.181-3.128 1.772-5.053 1.772-2.625 0-4.441-1.006-5.447-3.019-1.006-2.056-1.203-4.812-0.591-8.269 0.35-1.881 0.919-3.784 1.706-5.709s1.838-3.894 3.15-5.906c1.313-2.013 3.019-3.763 5.119-5.25s4.419-2.45 6.956-2.888l-0.656 6.956c-2.144 0.438-4.047 1.553-5.709 3.347-1.663 1.75-2.8 3.85-3.413 6.3z"></path>
</symbol>
</defs>
</svg>
